<svg viewBox="0 0 1024 1024" version="1.1" xmlns="http://www.w3.org/2000/svg">
    <path d="M868.82794 326.319531c-11.189073 0-21.623827 5.545147-27.914313 14.832706a22.449986 22.449986 0 0 1-18.588589 9.862279h-23.675755v17.959989h23.67351a22.447741 22.447741 0 0 1 18.588589 9.862279 33.683959 33.683959 0 0 0 27.916558 14.832706c18.568384 0 33.674979-15.106596 33.674979-33.67498 0-18.570629-15.104351-33.674979-33.674979-33.674979z"
          fill="#E85512"/>
    <path d="M565.2929 367.627506c-0.132455-0.942899-0.28736-1.888044-0.464715-2.835434-0.05388-0.24695-0.096535-0.49839-0.14368-0.747584-3.286678-16.480535-14.383706-33.589669-60.855178-48.78382-17.787124-5.816791-32.343695-8.643245-44.498117-8.643245-38.939501 0-55.271866 30.895671-87.712097 130.12012-18.498789 56.57621-24.237005 94.280962-18.058769 118.657158 2.689508 10.614354 8.05281 22.241201 24.35599 32.949845a22.247936 22.247936 0 0 1 5.309422 3.232798c7.026846 3.964668 15.72397 7.76994 26.560579 11.312548 14.846176 4.853687 27.357553 7.213181 38.250287 7.213181 25.862384 0 48.020521-12.978337 72.612235-70.028243a124.368434 124.368434 0 0 1-28.145548-21.920166c-38.741941-40.409975-47.847656-102.448267-24.358235-165.950299 4.301417-11.633583 17.219139-17.571604 28.843743-13.267942 11.629093 4.301417 17.569359 17.214649 13.267942 28.843743-17.383024 46.999046-11.902983 91.598189 14.657596 119.303717a80.777296 80.777296 0 0 0 11.867062 10.129434c0.64656-1.930699 1.293119-3.843438 1.946414-5.839242 18.000399-55.038386 30.437691-96.128596 26.565069-123.746569z"
          fill="#B4F0DF"/>
    <path d="M446.388793 130.337885c0 47.133746 38.342332 85.480568 85.471587 85.480568 47.122521 0 85.458118-38.346822 85.458118-85.480568 0-47.109051-38.335597-85.437913-85.458118-85.437912-47.129256 0-85.471588 38.326617-85.471587 85.437912z"
          fill="#7A4D33"/>
    <path d="M654.021981 509.625914l6.418451 16.77463 22.113236-8.4614a22.467946 22.467946 0 0 1 20.885223 2.568278 34.101529 34.101529 0 0 0 19.351888 6.115377h0.002245a33.54028 33.54028 0 0 0 12.017478-2.238264c17.342614-6.638461 26.050964-26.145254 19.414748-43.487869-4.956957-12.953642-17.600789-21.655257-31.463656-21.655256-4.094878 0-8.14261 0.75432-12.024213 2.240508a33.697429 33.697429 0 0 0-20.768482 23.832906 22.454476 22.454476 0 0 1-13.835927 15.851935l-22.110991 8.459155z"
          fill="#E85512"/>
    <path d="M868.82794 281.419558a78.507602 78.507602 0 0 0-57.19583 24.694985h-35.432814c-12.396882 0-22.449986 10.053104-22.449986 22.449986v8.979995h-150.547363c-16.25379-38.028032-55.321256-55.119206-85.419953-64.96128-22.362431-7.311961-41.48084-10.865793-58.450784-10.865794-77.728588 0-102.131723 74.639469-130.389521 161.067427-21.839347 66.795444-27.492253 109.753493-18.905133 143.639502 5.356567 21.136662 16.188685 38.286207 33.142915 52.106418-16.30767 56.57172-40.243845 93.382963-72.944496 112.256667-33.32925 19.241883-78.260652 20.972777-133.550478 5.145537a22.454476 22.454476 0 0 0-26.809774 12.733632l-31.459166 73.34186c-4.887362 11.395613 0.388385 24.59396 11.783998 29.483567a22.387126 22.387126 0 0 0 8.83856 1.825184c8.706105 0 16.992395-5.098392 20.642762-13.606937l23.868825-55.649026c59.029994 13.517137 109.129383 8.70386 149.130769-14.385951 41.047555-23.693716 70.827462-65.92214 90.603655-128.647401 4.032018 1.580479 8.17404 3.111568 12.549542 4.541632 14.500446 4.739192 27.692058 7.65769 39.983426 8.836315 9.372869 11.391123 29.384787 38.948481 43.737063 81.49794 25.844424 76.612823 22.135686 163.03629-11.018453 256.877233a22.445496 22.445496 0 0 0 20.804402 29.925832l80.144206 1.293119 0.36818 0.002245c12.228508 0 22.241201-9.815134 22.441006-22.088542 0.199805-12.394637-9.687169-22.607136-22.086296-22.809186l-49.791825-0.801464c34.191329-115.880094 19.895178-204.23875 0.752075-259.470207-10.524554-30.363606-23.516361-54.095487-34.629104-71.034001 33.838864-13.791027 57.094805-46.731891 76.466898-92.505169a149.537114 149.537114 0 0 0 26.315874 2.316839c10.966818 0 22.234466-1.142704 33.65702-3.457298l3.547098 9.267354a22.456721 22.456721 0 0 0 20.970532 14.433096 22.445496 22.445496 0 0 0 8.019135-1.488434l33.080055-12.661792a78.204527 78.204527 0 0 0 34.184594 7.81933h0.00449c9.599614 0 19.042078-1.751099 28.066973-5.206152 40.463855-15.483756 60.785583-61.005593 45.299582-101.467203-11.559498-30.208702-41.056535-50.505734-73.39574-50.505734-9.601859 0-19.046568 1.751099-28.073708 5.206152a78.491887 78.491887 0 0 0-44.587918 43.505828l-33.093525 12.666283a22.454476 22.454476 0 0 0-12.942417 28.991912l2.595219 6.779896c-9.561449 1.418839-18.786149 1.665789-27.573073 0.841874a914.747142 914.747142 0 0 0 2.325818-7.00215c16.7881-51.349854 28.567608-90.082815 29.436422-122.882245h142.905388v8.979994c0 12.399127 10.053104 22.449986 22.449986 22.449986h35.430569a78.512092 78.512092 0 0 0 57.198075 24.694985c43.326229 0 78.574952-35.248723 78.574952-78.574952 0.002245-43.332964-35.246478-78.581687-78.572707-78.581687z m-178.859041 203.893021a33.697429 33.697429 0 0 1 20.768482-23.832906 33.5313 33.5313 0 0 1 12.024213-2.240508c13.862867 0 26.506699 8.701615 31.463656 21.655256 6.636216 17.342614-2.072134 36.849408-19.414748 43.487869a33.54028 33.54028 0 0 1-12.017478 2.238264h-0.002245a34.101529 34.101529 0 0 1-19.351888-6.115377 22.441006 22.441006 0 0 0-20.885223-2.568278l-22.113236 8.4614-6.418451-16.77463 22.110991-8.4614a22.447741 22.447741 0 0 0 13.835927-15.84969z m-153.182992 11.900738a80.409116 80.409116 0 0 1-11.867062-10.129434c-26.560579-27.705528-32.04062-72.304671-14.657596-119.303717 4.301417-11.629093-1.638849-24.542325-13.267942-28.843743-11.626848-4.303662-24.54457 1.636604-28.843743 13.267942-23.489421 63.502031-14.383706 125.540323 24.358235 165.950299a124.141689 124.141689 0 0 0 28.145548 21.920166c-24.591715 57.049905-46.749851 70.028242-72.612235 70.028243-10.892733 0-23.404111-2.359494-38.250287-7.213181-10.836608-3.542608-19.533733-7.347881-26.560579-11.312548a22.247936 22.247936 0 0 0-5.309422-3.232798c-16.30318-10.708643-21.666482-22.335491-24.35599-32.949845-6.178236-24.376195-0.44002-62.080947 18.058769-118.657158 32.44023-99.224449 48.772595-130.120121 87.712097-130.12012 12.154423 0 26.708749 2.826453 44.498117 8.643245 46.471472 15.194151 57.570745 32.303285 60.855178 48.78382 0.0449 0.249195 0.087555 0.500635 0.14368 0.747584 0.17511 0.947389 0.33226 1.892534 0.464715 2.835434 3.872623 27.617973-8.56467 68.708183-26.560579 123.746569-0.65554 1.995804-1.302099 3.906298-1.950904 5.839242z m332.042033-103.543827c-11.189073 0-21.626072-5.545147-27.916558-14.832706a22.452231 22.452231 0 0 0-18.588589-9.862279h-23.67351v-17.959989h23.675755a22.449986 22.449986 0 0 0 18.588589-9.862279 33.681714 33.681714 0 0 1 27.914313-14.832706c18.568384 0 33.674979 15.106596 33.674979 33.674979s-15.104351 33.674979-33.674979 33.67498zM531.86038 260.718426c71.880366 0 130.35809-58.488949 130.358091-130.380541C662.218471 58.468744 603.738502 0 531.86038 0c-71.887101 0-130.37156 58.468744-130.37156 130.337885 0 71.891591 58.484459 130.38054 130.37156 130.380541z m85.458118-130.380541c0 47.133746-38.335597 85.480568-85.458118 85.480568-47.129256 0-85.471588-38.346822-85.471587-85.480568 0-47.109051 38.342332-85.437913 85.471587-85.437912 47.122521 0 85.458118 38.326617 85.458118 85.437912z"
          fill=""/>
</svg>