<svg viewBox="0 0 1024 1024" version="1.1" xmlns="http://www.w3.org/2000/svg">
    <path d="M512 1010.643478c-20.034783 0-37.843478-4.452174-55.652174-15.582608L120.208696 801.391304c-33.391304-20.034783-55.652174-55.652174-55.652174-95.721739V318.330435c0-40.069565 22.26087-75.686957 55.652174-95.721739l336.13913-193.669566c33.391304-20.034783 77.913043-20.034783 111.304348 0L903.791304 222.608696c33.391304 20.034783 55.652174 57.878261 55.652174 95.721739v387.33913c0 40.069565-22.26087 75.686957-55.652174 95.721739l-336.13913 193.669566c-17.808696 11.130435-35.617391 15.582609-55.652174 15.582608z m0-952.765217c-11.130435 0-22.26087 2.226087-33.391304 8.904348L142.469565 260.452174c-20.034783 11.130435-33.391304 33.391304-33.391304 57.878261v387.33913c0 24.486957 13.356522 46.747826 33.391304 57.878261L478.608696 957.217391c20.034783 11.130435 46.747826 11.130435 66.782608 0l336.139131-193.669565c20.034783-11.130435 33.391304-33.391304 33.391304-57.878261V318.330435c0-24.486957-13.356522-46.747826-33.391304-57.878261L545.391304 66.782609c-11.130435-4.452174-22.26087-8.904348-33.391304-8.904348z"
          fill="#0A1F44"/>
    <path d="M534.26087 280.486957l166.956521 95.721739c13.356522 8.904348 22.26087 22.26087 22.26087 37.843478v193.669565c0 15.582609-8.904348 31.165217-22.26087 37.843478L534.26087 743.513043c-13.356522 8.904348-31.165217 8.904348-44.52174 0l-166.956521-95.721739c-13.356522-8.904348-22.26087-22.26087-22.26087-37.843478v-193.669565c0-15.582609 8.904348-31.165217 22.26087-37.843478l166.956521-95.72174c13.356522-11.130435 31.165217-11.130435 44.52174-2.226086z"
          fill="#71B1FF"/>
    <path d="M567.652174 816.973913c-17.808696 0-33.391304-15.582609-33.391304-33.391304v-215.930435c0-11.130435 6.678261-22.26087 15.582608-28.939131l178.086957-106.852173c4.452174-2.226087 11.130435-4.452174 17.808695-4.452174 17.808696 0 33.391304 15.582609 33.391305 33.391304v215.930435c0 11.130435-6.678261 22.26087-15.582609 28.93913l-178.086956 106.852174c-6.678261 4.452174-11.130435 4.452174-17.808696 4.452174z m178.086956-365.078261c-2.226087 0-4.452174 0-6.67826 2.226087l-178.086957 106.852174c-2.226087 2.226087-4.452174 6.678261-4.452174 8.904348v215.930435c0 8.904348 8.904348 13.356522 17.808696 8.904347l178.086956-106.852173c2.226087-2.226087 4.452174-6.678261 4.452174-8.904348v-215.930435c0-6.678261-4.452174-11.130435-11.130435-11.130435z m-289.391304 365.078261c-6.678261 0-11.130435-2.226087-17.808696-4.452174l-178.086956-106.852174c-8.904348-4.452174-15.582609-15.582609-15.582609-28.93913v-215.930435c0-17.808696 15.582609-33.391304 33.391305-33.391304 6.678261 0 11.130435 2.226087 17.808695 4.452174l178.086957 106.852173c8.904348 6.678261 15.582609 17.808696 15.582608 28.939131v215.930435c0 20.034783-15.582609 33.391304-33.391304 33.391304z m-178.086956-365.078261c-6.678261 0-11.130435 4.452174-11.130435 11.130435v215.930435c0 4.452174 2.226087 6.678261 4.452174 8.904348l178.086956 106.852173c6.678261 4.452174 17.808696-2.226087 17.808696-8.904347v-215.930435c0-4.452174-2.226087-6.678261-4.452174-8.904348l-178.086957-106.852174c-2.226087-2.226087-4.452174-2.226087-6.67826-2.226087z m233.73913-20.034782c-4.452174 0-11.130435-2.226087-15.582609-4.452174L311.652174 331.686957c-15.582609-8.904348-22.26087-28.93913-13.356522-44.52174 2.226087-6.678261 8.904348-11.130435 13.356522-13.356521l184.765217-97.947826c8.904348-4.452174 22.26087-4.452174 31.165218 0l186.991304 97.947826c8.904348 4.452174 13.356522 11.130435 15.582609 20.034782 2.226087 8.904348 2.226087 17.808696-2.226087 24.486957-2.226087 6.678261-8.904348 11.130435-13.356522 13.356522l-184.765217 95.721739c-6.678261 2.226087-13.356522 4.452174-17.808696 4.452174z m0-240.417392c-2.226087 0-4.452174 0-4.452174 2.226087l-184.765217 97.947826c-2.226087 0-4.452174 2.226087-4.452174 4.452174-2.226087 4.452174 0 11.130435 4.452174 15.582609l186.991304 95.721739c2.226087 2.226087 6.678261 2.226087 11.130435 0l184.765217-95.721739c2.226087 0 4.452174-2.226087 4.452174-4.452174 2.226087-2.226087 2.226087-6.678261 0-8.904348 0-2.226087-2.226087-4.452174-4.452174-6.678261l-186.991304-97.947826c-4.452174 0-6.678261-2.226087-6.678261-2.226087z"
          fill="#0A1F44"/>
</svg>